<svg xmlns="http://www.w3.org/2000/svg" xmlns:xlink="http://www.w3.org/1999/xlink" width="211.292" height="189.816" viewBox="0 0 211.292 189.816">
  <defs>
    <filter id="Tracé_14" x="0" y="0" width="46.634" height="189.816" filterUnits="userSpaceOnUse">
      <feOffset dy="3" input="SourceAlpha"/>
      <feGaussianBlur stdDeviation="3" result="blur"/>
      <feFlood flood-color="#06d4fe"/>
      <feComposite operator="in" in2="blur"/>
      <feComposite in="SourceGraphic"/>
    </filter>
    <filter id="Tracé_15" x="28.637" y="14.26" width="182.655" height="132.601" filterUnits="userSpaceOnUse">
      <feOffset dy="3" input="SourceAlpha"/>
      <feGaussianBlur stdDeviation="3" result="blur-2"/>
      <feFlood flood-color="#06d4fe"/>
      <feComposite operator="in" in2="blur-2"/>
      <feComposite in="SourceGraphic"/>
    </filter>
  </defs>
  <g id="white-flag-symbol" transform="translate(9 -21.406)">
    <g id="Groupe_6" data-name="Groupe 6" transform="translate(0 27.406)">
      <g transform="matrix(1, 0, 0, 1, -9, -6)" filter="url(#Tracé_14)">
        <path id="Tracé_14-2" data-name="Tracé 14" d="M14.319,27.406A13.809,13.809,0,0,0,4.195,31.6,13.8,13.8,0,0,0,0,41.725a13.583,13.583,0,0,0,1.958,7.159,14.628,14.628,0,0,0,5.2,5.146V195.644a3.445,3.445,0,0,0,3.58,3.578H17.9a3.443,3.443,0,0,0,3.579-3.578V54.029a14.63,14.63,0,0,0,5.2-5.146,13.589,13.589,0,0,0,1.957-7.159A13.806,13.806,0,0,0,24.442,31.6,13.8,13.8,0,0,0,14.319,27.406Z" transform="translate(9 -21.41)" fill="#06d4fe"/>
      </g>
      <g transform="matrix(1, 0, 0, 1, -9, -6)" filter="url(#Tracé_15)">
        <path id="Tracé_15-2" data-name="Tracé 15" d="M234.284,64.868a6.817,6.817,0,0,0-6.939-.223q-1,.561-3.466,1.9Q202.851,79.075,189.2,79.076a22.008,22.008,0,0,1-9.957-2.125,173.068,173.068,0,0,0-23.378-9.621,76.581,76.581,0,0,0-40.716-1.341,99.445,99.445,0,0,0-17.06,5.535q-7.885,3.412-12.751,5.817t-8.782,4.754a6.965,6.965,0,0,0-3.469,6.152v83a6.85,6.85,0,0,0,3.579,6.264,7.925,7.925,0,0,0,3.58.894,7.052,7.052,0,0,0,3.69-1A122.9,122.9,0,0,1,109.5,165.989q14.935-4.921,26.344-4.922a52.359,52.359,0,0,1,12.752,1.566,69.134,69.134,0,0,1,10.179,3.243q3.912,1.679,11.074,5.37l3.132,1.566a38.942,38.942,0,0,0,17.67,3.918q16.894,0,41.277-12.976.785-.447,1.9-1.007a6.7,6.7,0,0,0,3.916-6.375V71.02A6.965,6.965,0,0,0,234.284,64.868Zm-9.855,93.254q-19.352,10.289-32.774,10.291a24.961,24.961,0,0,1-11.3-2.46l-3.13-1.566q-6.154-3.021-9.229-4.419t-8.612-3.467a55.6,55.6,0,0,0-10.962-2.908,75.829,75.829,0,0,0-11.578-.838c-14.021,0-36.164,5.213-54.435,13.641l-1-79.006c17.153-9.472,38.18-15.207,51.08-15.207A63.565,63.565,0,0,1,152.4,75.258a161.86,161.86,0,0,1,20.584,8.556,35.317,35.317,0,0,0,16.217,3.58c10.216,0,27.627-3.394,40.23-10.179v74.907Z" transform="translate(-35.45 -43.54)" fill="#06d4fe"/>
      </g>
    </g>
  </g>
</svg>
